<mxfile host="app.diagrams.net" modified="2023-04-13T18:19:57.673Z" agent="Mozilla/5.0 (Windows NT 10.0; Win64; x64) AppleWebKit/537.36 (KHTML, like Gecko) Chrome/112.0.0.0 Safari/537.36 Edg/112.0.1722.39" etag="GjosRy7kcrNzZsXA-N38" version="21.1.7" type="github">
  <diagram name="หน้า-1" id="d88bb-9buVPB-qfa8Zo9">
    <mxGraphModel dx="1588" dy="954" grid="1" gridSize="10" guides="1" tooltips="1" connect="1" arrows="1" fold="1" page="1" pageScale="1" pageWidth="827" pageHeight="1169" math="0" shadow="0">
      <root>
        <mxCell id="0" />
        <mxCell id="1" parent="0" />
        <mxCell id="JsAIPUZswHNAwa6cg3Oe-14" style="edgeStyle=orthogonalEdgeStyle;rounded=0;orthogonalLoop=1;jettySize=auto;html=1;exitX=0.5;exitY=1;exitDx=0;exitDy=0;entryX=0.5;entryY=0;entryDx=0;entryDy=0;" edge="1" parent="1" source="JsAIPUZswHNAwa6cg3Oe-1" target="JsAIPUZswHNAwa6cg3Oe-2">
          <mxGeometry relative="1" as="geometry" />
        </mxCell>
        <mxCell id="JsAIPUZswHNAwa6cg3Oe-1" value="Start" style="ellipse;whiteSpace=wrap;html=1;" vertex="1" parent="1">
          <mxGeometry x="440" y="90" width="120" height="70" as="geometry" />
        </mxCell>
        <mxCell id="JsAIPUZswHNAwa6cg3Oe-9" style="edgeStyle=orthogonalEdgeStyle;rounded=0;orthogonalLoop=1;jettySize=auto;html=1;exitX=0.5;exitY=1;exitDx=0;exitDy=0;entryX=0.5;entryY=0;entryDx=0;entryDy=0;" edge="1" parent="1" source="JsAIPUZswHNAwa6cg3Oe-2" target="JsAIPUZswHNAwa6cg3Oe-5">
          <mxGeometry relative="1" as="geometry" />
        </mxCell>
        <mxCell id="JsAIPUZswHNAwa6cg3Oe-2" value="Initialization&lt;br&gt;Module / Sensor / Library" style="rounded=0;whiteSpace=wrap;html=1;" vertex="1" parent="1">
          <mxGeometry x="440" y="210" width="120" height="60" as="geometry" />
        </mxCell>
        <mxCell id="JsAIPUZswHNAwa6cg3Oe-12" style="edgeStyle=orthogonalEdgeStyle;rounded=0;orthogonalLoop=1;jettySize=auto;html=1;exitX=1;exitY=0.5;exitDx=0;exitDy=0;entryX=0;entryY=0.5;entryDx=0;entryDy=0;" edge="1" parent="1" source="JsAIPUZswHNAwa6cg3Oe-5" target="JsAIPUZswHNAwa6cg3Oe-6">
          <mxGeometry relative="1" as="geometry" />
        </mxCell>
        <mxCell id="JsAIPUZswHNAwa6cg3Oe-13" style="edgeStyle=orthogonalEdgeStyle;rounded=0;orthogonalLoop=1;jettySize=auto;html=1;exitX=0.5;exitY=1;exitDx=0;exitDy=0;entryX=0.5;entryY=0;entryDx=0;entryDy=0;" edge="1" parent="1" source="JsAIPUZswHNAwa6cg3Oe-5">
          <mxGeometry relative="1" as="geometry">
            <mxPoint x="499.9999999999998" y="490" as="targetPoint" />
          </mxGeometry>
        </mxCell>
        <mxCell id="JsAIPUZswHNAwa6cg3Oe-5" value="Check SPIFFS &lt;br&gt;HTML" style="rhombus;whiteSpace=wrap;html=1;" vertex="1" parent="1">
          <mxGeometry x="428.75" y="330" width="142.5" height="90" as="geometry" />
        </mxCell>
        <mxCell id="JsAIPUZswHNAwa6cg3Oe-10" style="edgeStyle=orthogonalEdgeStyle;rounded=0;orthogonalLoop=1;jettySize=auto;html=1;exitX=0.5;exitY=0;exitDx=0;exitDy=0;entryX=1;entryY=0.5;entryDx=0;entryDy=0;" edge="1" parent="1" source="JsAIPUZswHNAwa6cg3Oe-6" target="JsAIPUZswHNAwa6cg3Oe-2">
          <mxGeometry relative="1" as="geometry" />
        </mxCell>
        <mxCell id="JsAIPUZswHNAwa6cg3Oe-6" value="Error has occurred while mounting SPIFFS" style="rounded=0;whiteSpace=wrap;html=1;" vertex="1" parent="1">
          <mxGeometry x="690" y="345" width="120" height="60" as="geometry" />
        </mxCell>
        <mxCell id="JsAIPUZswHNAwa6cg3Oe-18" style="edgeStyle=orthogonalEdgeStyle;rounded=0;orthogonalLoop=1;jettySize=auto;html=1;exitX=1;exitY=0.5;exitDx=0;exitDy=0;entryX=0;entryY=0.5;entryDx=0;entryDy=0;" edge="1" parent="1" source="JsAIPUZswHNAwa6cg3Oe-16" target="JsAIPUZswHNAwa6cg3Oe-17">
          <mxGeometry relative="1" as="geometry" />
        </mxCell>
        <mxCell id="JsAIPUZswHNAwa6cg3Oe-21" style="edgeStyle=orthogonalEdgeStyle;rounded=0;orthogonalLoop=1;jettySize=auto;html=1;exitX=0.5;exitY=1;exitDx=0;exitDy=0;entryX=0.5;entryY=0;entryDx=0;entryDy=0;" edge="1" parent="1" source="JsAIPUZswHNAwa6cg3Oe-16" target="JsAIPUZswHNAwa6cg3Oe-20">
          <mxGeometry relative="1" as="geometry" />
        </mxCell>
        <mxCell id="JsAIPUZswHNAwa6cg3Oe-16" value="Check Connection&lt;br&gt;Wifi / Line" style="rhombus;whiteSpace=wrap;html=1;" vertex="1" parent="1">
          <mxGeometry x="428.75" y="490" width="142.5" height="90" as="geometry" />
        </mxCell>
        <mxCell id="JsAIPUZswHNAwa6cg3Oe-37" style="edgeStyle=orthogonalEdgeStyle;rounded=0;orthogonalLoop=1;jettySize=auto;html=1;exitX=0.5;exitY=0;exitDx=0;exitDy=0;entryX=0.5;entryY=0;entryDx=0;entryDy=0;" edge="1" parent="1" source="JsAIPUZswHNAwa6cg3Oe-17" target="JsAIPUZswHNAwa6cg3Oe-16">
          <mxGeometry relative="1" as="geometry">
            <Array as="points">
              <mxPoint x="750" y="450" />
              <mxPoint x="500" y="450" />
            </Array>
          </mxGeometry>
        </mxCell>
        <mxCell id="JsAIPUZswHNAwa6cg3Oe-17" value="Wait Connect" style="rounded=0;whiteSpace=wrap;html=1;" vertex="1" parent="1">
          <mxGeometry x="690" y="505" width="120" height="60" as="geometry" />
        </mxCell>
        <mxCell id="JsAIPUZswHNAwa6cg3Oe-23" style="edgeStyle=orthogonalEdgeStyle;rounded=0;orthogonalLoop=1;jettySize=auto;html=1;exitX=1;exitY=0.5;exitDx=0;exitDy=0;entryX=0;entryY=0.5;entryDx=0;entryDy=0;" edge="1" parent="1" source="JsAIPUZswHNAwa6cg3Oe-20" target="JsAIPUZswHNAwa6cg3Oe-22">
          <mxGeometry relative="1" as="geometry" />
        </mxCell>
        <mxCell id="JsAIPUZswHNAwa6cg3Oe-27" style="edgeStyle=orthogonalEdgeStyle;rounded=0;orthogonalLoop=1;jettySize=auto;html=1;exitX=0.5;exitY=1;exitDx=0;exitDy=0;entryX=0.5;entryY=0;entryDx=0;entryDy=0;" edge="1" parent="1" source="JsAIPUZswHNAwa6cg3Oe-20" target="JsAIPUZswHNAwa6cg3Oe-25">
          <mxGeometry relative="1" as="geometry" />
        </mxCell>
        <mxCell id="JsAIPUZswHNAwa6cg3Oe-69" style="edgeStyle=orthogonalEdgeStyle;rounded=0;orthogonalLoop=1;jettySize=auto;html=1;exitX=0;exitY=0.5;exitDx=0;exitDy=0;entryX=0.5;entryY=0;entryDx=0;entryDy=0;" edge="1" parent="1" source="JsAIPUZswHNAwa6cg3Oe-20" target="JsAIPUZswHNAwa6cg3Oe-59">
          <mxGeometry relative="1" as="geometry">
            <Array as="points">
              <mxPoint x="420" y="695" />
              <mxPoint x="420" y="260" />
              <mxPoint x="260" y="260" />
            </Array>
          </mxGeometry>
        </mxCell>
        <mxCell id="JsAIPUZswHNAwa6cg3Oe-70" style="edgeStyle=orthogonalEdgeStyle;rounded=0;orthogonalLoop=1;jettySize=auto;html=1;exitX=0;exitY=0.5;exitDx=0;exitDy=0;entryX=0.5;entryY=0;entryDx=0;entryDy=0;" edge="1" parent="1" source="JsAIPUZswHNAwa6cg3Oe-20" target="JsAIPUZswHNAwa6cg3Oe-65">
          <mxGeometry relative="1" as="geometry">
            <Array as="points">
              <mxPoint x="400" y="695" />
              <mxPoint x="400" y="230" />
              <mxPoint x="110" y="230" />
            </Array>
          </mxGeometry>
        </mxCell>
        <mxCell id="JsAIPUZswHNAwa6cg3Oe-20" value="Check SPIFFS&lt;br&gt;state.json" style="rhombus;whiteSpace=wrap;html=1;" vertex="1" parent="1">
          <mxGeometry x="428.75" y="650" width="142.5" height="90" as="geometry" />
        </mxCell>
        <mxCell id="JsAIPUZswHNAwa6cg3Oe-26" style="edgeStyle=orthogonalEdgeStyle;rounded=0;orthogonalLoop=1;jettySize=auto;html=1;entryX=1;entryY=0.5;entryDx=0;entryDy=0;exitX=0.5;exitY=1;exitDx=0;exitDy=0;" edge="1" parent="1" source="JsAIPUZswHNAwa6cg3Oe-22" target="JsAIPUZswHNAwa6cg3Oe-25">
          <mxGeometry relative="1" as="geometry">
            <mxPoint x="730" y="760" as="sourcePoint" />
            <Array as="points">
              <mxPoint x="750" y="840" />
            </Array>
          </mxGeometry>
        </mxCell>
        <mxCell id="JsAIPUZswHNAwa6cg3Oe-22" value="Creating initial state.json" style="rounded=0;whiteSpace=wrap;html=1;" vertex="1" parent="1">
          <mxGeometry x="690" y="665" width="120" height="60" as="geometry" />
        </mxCell>
        <mxCell id="JsAIPUZswHNAwa6cg3Oe-47" style="edgeStyle=orthogonalEdgeStyle;rounded=0;orthogonalLoop=1;jettySize=auto;html=1;exitX=0.5;exitY=1;exitDx=0;exitDy=0;entryX=0.5;entryY=0;entryDx=0;entryDy=0;" edge="1" parent="1" source="JsAIPUZswHNAwa6cg3Oe-25" target="JsAIPUZswHNAwa6cg3Oe-45">
          <mxGeometry relative="1" as="geometry" />
        </mxCell>
        <mxCell id="JsAIPUZswHNAwa6cg3Oe-25" value="&amp;nbsp;server.on" style="rounded=0;whiteSpace=wrap;html=1;" vertex="1" parent="1">
          <mxGeometry x="440" y="810" width="120" height="60" as="geometry" />
        </mxCell>
        <mxCell id="JsAIPUZswHNAwa6cg3Oe-28" value="exists" style="text;whiteSpace=wrap;html=1;" vertex="1" parent="1">
          <mxGeometry x="450" y="760" width="40" height="20" as="geometry" />
        </mxCell>
        <mxCell id="JsAIPUZswHNAwa6cg3Oe-29" value="exists" style="text;whiteSpace=wrap;html=1;" vertex="1" parent="1">
          <mxGeometry x="450" y="440" width="40" height="20" as="geometry" />
        </mxCell>
        <mxCell id="JsAIPUZswHNAwa6cg3Oe-30" value="!SPIFFS.begin()" style="text;whiteSpace=wrap;html=1;" vertex="1" parent="1">
          <mxGeometry x="560" y="345" width="40" height="20" as="geometry" />
        </mxCell>
        <mxCell id="JsAIPUZswHNAwa6cg3Oe-31" value="!exists" style="text;whiteSpace=wrap;html=1;" vertex="1" parent="1">
          <mxGeometry x="590" y="665" width="40" height="20" as="geometry" />
        </mxCell>
        <mxCell id="JsAIPUZswHNAwa6cg3Oe-32" value="! WL_CONNECTED" style="text;whiteSpace=wrap;html=1;" vertex="1" parent="1">
          <mxGeometry x="571.25" y="530" width="110" height="25" as="geometry" />
        </mxCell>
        <mxCell id="JsAIPUZswHNAwa6cg3Oe-34" value="CONNECTED" style="text;whiteSpace=wrap;html=1;" vertex="1" parent="1">
          <mxGeometry x="505" y="610" width="150" height="40" as="geometry" />
        </mxCell>
        <mxCell id="JsAIPUZswHNAwa6cg3Oe-35" value="return" style="text;whiteSpace=wrap;html=1;" vertex="1" parent="1">
          <mxGeometry x="640" y="210" width="60" height="40" as="geometry" />
        </mxCell>
        <mxCell id="JsAIPUZswHNAwa6cg3Oe-49" style="edgeStyle=orthogonalEdgeStyle;rounded=0;orthogonalLoop=1;jettySize=auto;html=1;entryX=0.5;entryY=0;entryDx=0;entryDy=0;" edge="1" parent="1" source="JsAIPUZswHNAwa6cg3Oe-42" target="JsAIPUZswHNAwa6cg3Oe-48">
          <mxGeometry relative="1" as="geometry" />
        </mxCell>
        <mxCell id="JsAIPUZswHNAwa6cg3Oe-51" style="edgeStyle=orthogonalEdgeStyle;rounded=0;orthogonalLoop=1;jettySize=auto;html=1;exitX=0;exitY=0.5;exitDx=0;exitDy=0;entryX=0.5;entryY=0;entryDx=0;entryDy=0;" edge="1" parent="1" source="JsAIPUZswHNAwa6cg3Oe-42" target="JsAIPUZswHNAwa6cg3Oe-50">
          <mxGeometry relative="1" as="geometry" />
        </mxCell>
        <mxCell id="JsAIPUZswHNAwa6cg3Oe-42" value="Get Data with&amp;nbsp;DS3231&amp;nbsp;&lt;br&gt;BME280&amp;nbsp;BH1750" style="rounded=0;whiteSpace=wrap;html=1;" vertex="1" parent="1">
          <mxGeometry x="201" y="460" width="120" height="60" as="geometry" />
        </mxCell>
        <mxCell id="JsAIPUZswHNAwa6cg3Oe-60" style="edgeStyle=orthogonalEdgeStyle;rounded=0;orthogonalLoop=1;jettySize=auto;html=1;exitX=0;exitY=0.5;exitDx=0;exitDy=0;entryX=1;entryY=0.5;entryDx=0;entryDy=0;" edge="1" parent="1" source="JsAIPUZswHNAwa6cg3Oe-45" target="JsAIPUZswHNAwa6cg3Oe-59">
          <mxGeometry relative="1" as="geometry" />
        </mxCell>
        <mxCell id="JsAIPUZswHNAwa6cg3Oe-45" value="Set Time To Trigger Sensor" style="rhombus;whiteSpace=wrap;html=1;" vertex="1" parent="1">
          <mxGeometry x="428.75" y="920" width="142.5" height="90" as="geometry" />
        </mxCell>
        <mxCell id="JsAIPUZswHNAwa6cg3Oe-48" value="Senddata to ThinkSpeak" style="rounded=0;whiteSpace=wrap;html=1;" vertex="1" parent="1">
          <mxGeometry x="200" y="590" width="120" height="60" as="geometry" />
        </mxCell>
        <mxCell id="JsAIPUZswHNAwa6cg3Oe-50" value="Send Notification To Line" style="rounded=0;whiteSpace=wrap;html=1;" vertex="1" parent="1">
          <mxGeometry x="40" y="590" width="120" height="60" as="geometry" />
        </mxCell>
        <mxCell id="JsAIPUZswHNAwa6cg3Oe-61" style="edgeStyle=orthogonalEdgeStyle;rounded=0;orthogonalLoop=1;jettySize=auto;html=1;exitX=0.5;exitY=1;exitDx=0;exitDy=0;entryX=0.5;entryY=0;entryDx=0;entryDy=0;" edge="1" parent="1" source="JsAIPUZswHNAwa6cg3Oe-59" target="JsAIPUZswHNAwa6cg3Oe-42">
          <mxGeometry relative="1" as="geometry" />
        </mxCell>
        <mxCell id="JsAIPUZswHNAwa6cg3Oe-59" value="Wait Tigger&amp;nbsp;&lt;br&gt;( Tigger = 0 &lt;br&gt;Idel Loop )&amp;nbsp;" style="rounded=0;whiteSpace=wrap;html=1;" vertex="1" parent="1">
          <mxGeometry x="200" y="280" width="120" height="60" as="geometry" />
        </mxCell>
        <mxCell id="JsAIPUZswHNAwa6cg3Oe-62" value="Send Tigger" style="text;whiteSpace=wrap;html=1;" vertex="1" parent="1">
          <mxGeometry x="330" y="800" width="40" height="20" as="geometry" />
        </mxCell>
        <mxCell id="JsAIPUZswHNAwa6cg3Oe-67" style="edgeStyle=orthogonalEdgeStyle;rounded=0;orthogonalLoop=1;jettySize=auto;html=1;exitX=0.5;exitY=1;exitDx=0;exitDy=0;entryX=0.25;entryY=0;entryDx=0;entryDy=0;" edge="1" parent="1" source="JsAIPUZswHNAwa6cg3Oe-65" target="JsAIPUZswHNAwa6cg3Oe-50">
          <mxGeometry relative="1" as="geometry">
            <Array as="points">
              <mxPoint x="110" y="360" />
              <mxPoint x="70" y="360" />
            </Array>
          </mxGeometry>
        </mxCell>
        <mxCell id="JsAIPUZswHNAwa6cg3Oe-65" value="Get Data with Sensor&lt;br&gt;HC-SR04" style="rounded=0;whiteSpace=wrap;html=1;" vertex="1" parent="1">
          <mxGeometry x="50" y="280" width="120" height="60" as="geometry" />
        </mxCell>
        <mxCell id="JsAIPUZswHNAwa6cg3Oe-68" value="Web SendTigger" style="text;whiteSpace=wrap;html=1;" vertex="1" parent="1">
          <mxGeometry x="510" y="880" width="100" height="20" as="geometry" />
        </mxCell>
        <mxCell id="JsAIPUZswHNAwa6cg3Oe-71" value="Tigger = 1" style="text;whiteSpace=wrap;html=1;" vertex="1" parent="1">
          <mxGeometry x="270" y="385" width="60" height="20" as="geometry" />
        </mxCell>
      </root>
    </mxGraphModel>
  </diagram>
</mxfile>
